<svg xmlns="http://www.w3.org/2000/svg" xmlns:xlink="http://www.w3.org/1999/xlink" width="122" height="26.719" viewBox="0 0 122 26.719">
  <defs>
    <clipPath id="clip-path">
      <rect id="Rectangle_3" data-name="Rectangle 3" width="122" height="26.719" fill="none"/>
    </clipPath>
  </defs>
  <g id="Group_3" data-name="Group 3" transform="translate(0 0)">
    <path id="Path_1" data-name="Path 1" d="M43.44,43.44H41.069l-.012-2.371,2.371-.012Z" transform="translate(-28.889 -28.889)" fill="#fff"/>
    <g id="Group_2" data-name="Group 2" transform="translate(0 0)">
      <g id="Group_1" data-name="Group 1" clip-path="url(#clip-path)">
        <path id="Path_2" data-name="Path 2" d="M14.566,14.567H7.309a7.264,7.264,0,1,1,7.258-7.258ZM7.3,2.41A4.893,4.893,0,0,0,7.309,12.2H12.2V7.309a4.9,4.9,0,0,0-4.9-4.9" transform="translate(-0.027 -0.028)" fill="#fff"/>
        <path id="Path_3" data-name="Path 3" d="M48.367,55.625a7.278,7.278,0,0,1-7.27-7.27V41.1h7.258a7.264,7.264,0,1,1,.012,14.528m-4.9-12.157v4.887a4.893,4.893,0,1,0,4.887-4.887Z" transform="translate(-28.917 -28.917)" fill="#fff"/>
        <path id="Path_4" data-name="Path 4" d="M34.692,22.3l-.012-2.85a4.9,4.9,0,0,0-4.9-4.9l-7.258-.012-.012-1.185V7.281a4.9,4.9,0,0,0-4.9-4.9H14.7L17.143,0H29.794a7.278,7.278,0,0,1,7.27,7.27V19.929ZM24.883,12.18h4.9a7.242,7.242,0,0,1,4.911,1.914V7.27a4.9,4.9,0,0,0-4.9-4.9H22.97a7.243,7.243,0,0,1,1.913,4.91Z" transform="translate(-10.344 0)" fill="#fff"/>
        <path id="Path_5" data-name="Path 5" d="M19.92,37.211H7.269A7.278,7.278,0,0,1,0,29.941V17.282l2.371-2.371.012,2.85a4.9,4.9,0,0,0,4.9,4.9l7.258.012.012,1.185V29.93a4.9,4.9,0,0,0,4.9,4.9h2.913ZM2.371,23.117v6.824a4.9,4.9,0,0,0,4.9,4.9h6.824a7.242,7.242,0,0,1-1.913-4.91v-4.9h-4.9a7.243,7.243,0,0,1-4.91-1.914" transform="translate(0 -10.492)" fill="#fff"/>
        <path id="Path_6" data-name="Path 6" d="M123.757,22.006c4.306,0,6.444,2.078,6.444,6.2v7.8c0,1.054-.241,1.355-1.084,1.717a14.518,14.518,0,0,1-5.42.783c-2.56,0-4.306-.392-5.27-1.2a4.47,4.47,0,0,1-1.446-3.674c0-3.583,1.927-4.848,6.836-4.848.211,0,1.174.06,2.891.151v-.843c0-1.958-.843-2.981-3.011-2.981a3.5,3.5,0,0,0-3.162,1.445c-.452.632-.6.693-1.295.452l-1.2-.512c-.663-.3-.843-.753-.512-1.355,1.084-2.078,3.162-3.132,6.233-3.132m2.951,9.787c-2.108-.09-3.192-.151-3.282-.151-2.168,0-2.891.632-2.891,1.957,0,1.355.632,2.018,2.831,2.018a15.28,15.28,0,0,0,3.011-.241c.211-.09.331-.211.331-.421Z" transform="translate(-82.311 -15.484)" fill="#fff"/>
        <path id="Path_7" data-name="Path 7" d="M176.258,22.325c0,.693-.241.934-.934.934H173.7c-.723,0-.934-.241-.934-.934V1.909c0-.693.211-.934.934-.934h1.626c.693,0,.934.241.934.934Z" transform="translate(-121.563 -0.686)" fill="#fff"/>
        <path id="Path_8" data-name="Path 8" d="M208.571,23.531c.693,0,.934.211.934.9V36.841c0,.963-.211,1.295-1.174,1.686a16.08,16.08,0,0,1-5.9,1.054c-4.216,0-6.293-2.168-6.293-6.053V24.434c0-.693.241-.9.933-.9h1.656c.693,0,.9.211.9.9v8.974c0,1.987,1.084,2.981,3.282,2.981a9.655,9.655,0,0,0,2.77-.361.5.5,0,0,0,.331-.512V24.434c0-.693.241-.9.934-.9Z" transform="translate(-138.007 -16.557)" fill="#fff"/>
        <path id="Path_9" data-name="Path 9" d="M259.736,22.007c4.216,0,6.263,2.168,6.263,6.053v9.064c0,.692-.241.933-.934.933h-1.656c-.692,0-.9-.241-.9-.933V28.15c0-1.957-1.084-2.951-3.283-2.951a10.627,10.627,0,0,0-2.89.391.29.29,0,0,0-.211.3V37.124c0,.692-.211.933-.9.933h-1.656c-.693,0-.934-.241-.934-.933V24.747a1.5,1.5,0,0,1,1.174-1.716,15.7,15.7,0,0,1,5.932-1.024" transform="translate(-177.757 -15.485)" fill="#fff"/>
        <path id="Path_10" data-name="Path 10" d="M313.054,22.006c4.306,0,6.444,2.078,6.444,6.2v7.8c0,1.054-.241,1.355-1.084,1.717a14.518,14.518,0,0,1-5.42.783c-2.56,0-4.306-.392-5.27-1.2a4.47,4.47,0,0,1-1.446-3.674c0-3.583,1.927-4.848,6.836-4.848.211,0,1.174.06,2.891.151v-.843c0-1.958-.843-2.981-3.011-2.981a3.5,3.5,0,0,0-3.162,1.445c-.452.632-.6.693-1.295.452l-1.2-.512c-.663-.3-.843-.753-.512-1.355,1.084-2.078,3.162-3.132,6.234-3.132M316,31.793c-2.108-.09-3.192-.151-3.282-.151-2.168,0-2.891.632-2.891,1.957,0,1.355.632,2.018,2.831,2.018a15.28,15.28,0,0,0,3.011-.241c.211-.09.331-.211.331-.421Z" transform="translate(-215.507 -15.484)" fill="#fff"/>
        <path id="Path_11" data-name="Path 11" d="M366.589.974c.723,0,.964.241.964.964V3.263c0,.723-.241.963-.964.963-2.53,0-3.4.843-3.4,3.132v.3h3.463c.693,0,.9.211.9.9V9.947c0,.693-.211.934-.9.934h-3.463V22.324c0,.693-.211.934-.934.934h-1.6c-.723,0-.964-.241-.964-.934V10.881h-1.807c-.692,0-.9-.241-.9-.934V8.562c0-.692.211-.9.9-.9h1.807v-.3c0-4.186,2.2-6.293,6.625-6.384Z" transform="translate(-251.184 -0.685)" fill="#fff"/>
        <path id="Path_12" data-name="Path 12" d="M400.588,3.819c1.415,0,1.837.452,1.837,1.807V5.9c0,1.415-.421,1.837-1.837,1.837h-.211c-1.355,0-1.837-.421-1.837-1.837V5.626c0-1.355.422-1.807,1.837-1.807Zm.723,5.842c.693,0,.934.211.934.9V24.326c0,.693-.241.934-.934.934h-1.656c-.692,0-.9-.241-.9-.934V10.564c0-.693.211-.9.9-.9Z" transform="translate(-280.425 -2.687)" fill="#fff"/>
      </g>
    </g>
  </g>
</svg>
